{
  "asset": {
    "version": "2.0",
    "generator": "THREE.GLTFExporter r176"
  },
  "scenes": [
    {
      "nodes": [
        4
      ]
    }
  ],
  "scene": 0,
  "nodes": [
    {
      "matrix": [
        1,
        0,
        0,
        0,
        0,
        0.92,
        0,
        0,
        0,
        0,
        1.05,
        0,
        0,
        0,
        0,
        1
      ],
      "mesh": 0
    },
    {
      "matrix": [
        1,
        0,
        0,
        0,
        0,
        1,
        0,
        0,
        0,
        0,
        1,
        0,
        0,
        0.88,
        -0.32,
        1
      ],
      "mesh": 1
    },
    {
      "matrix": [
        2.220446049250313e-16,
        1,
        0,
        0,
        -1,
        2.220446049250313e-16,
        0,
        0,
        0,
        0,
        1,
        0,
        0,
        0,
        0,
        1
      ],
      "mesh": 2
    },
    {
      "matrix": [
        1,
        0,
        0,
        0,
        0,
        0.6,
        0,
        0,
        0,
        0,
        0.5,
        0,
        0,
        0.1,
        0.78,
        1
      ],
      "mesh": 3
    },
    {
      "children": [
        0,
        1,
        2,
        3
      ]
    }
  ],
  "bufferViews": [
    {
      "buffer": 0,
      "byteOffset": 0,
      "byteLength": 13068,
      "target": 34962,
      "byteStride": 12
    },
    {
      "buffer": 0,
      "byteOffset": 13068,
      "byteLength": 13068,
      "target": 34962,
      "byteStride": 12
    },
    {
      "buffer": 0,
      "byteOffset": 26136,
      "byteLength": 8712,
      "target": 34962,
      "byteStride": 8
    },
    {
      "buffer": 0,
      "byteOffset": 34848,
      "byteLength": 11904,
      "target": 34963
    },
    {
      "buffer": 0,
      "byteOffset": 46752,
      "byteLength": 288,
      "target": 34962,
      "byteStride": 12
    },
    {
      "buffer": 0,
      "byteOffset": 47040,
      "byteLength": 288,
      "target": 34962,
      "byteStride": 12
    },
    {
      "buffer": 0,
      "byteOffset": 47328,
      "byteLength": 192,
      "target": 34962,
      "byteStride": 8
    },
    {
      "buffer": 0,
      "byteOffset": 47520,
      "byteLength": 72,
      "target": 34963
    },
    {
      "buffer": 0,
      "byteOffset": 47592,
      "byteLength": 8820,
      "target": 34962,
      "byteStride": 12
    },
    {
      "buffer": 0,
      "byteOffset": 56412,
      "byteLength": 8820,
      "target": 34962,
      "byteStride": 12
    },
    {
      "buffer": 0,
      "byteOffset": 65232,
      "byteLength": 5880,
      "target": 34962,
      "byteStride": 8
    },
    {
      "buffer": 0,
      "byteOffset": 71112,
      "byteLength": 8064,
      "target": 34963
    },
    {
      "buffer": 0,
      "byteOffset": 79176,
      "byteLength": 4332,
      "target": 34962,
      "byteStride": 12
    },
    {
      "buffer": 0,
      "byteOffset": 83508,
      "byteLength": 4332,
      "target": 34962,
      "byteStride": 12
    },
    {
      "buffer": 0,
      "byteOffset": 87840,
      "byteLength": 2888,
      "target": 34962,
      "byteStride": 8
    },
    {
      "buffer": 0,
      "byteOffset": 90728,
      "byteLength": 3672,
      "target": 34963
    }
  ],
  "buffers": [
    {
      "byteLength": 94400,
      "uri": "data:application/octet-stream;base64,"
    }
  ],
  "accessors": [
    {
      "bufferView": 0,
      "componentType": 5126,
      "count": 1089,
      "max": [
        1.0199999809265137,
        1.0199999809265137,
        1.0199999809265137
      ],
      "min": [
        -1.0199999809265137,
        -1.0199999809265137,
        -1.0199999809265137
      ],
      "type": "VEC3"
    },
    {
      "bufferView": 1,
      "componentType": 5126,
      "count": 1089,
      "max": [
        1,
        1,
        1
      ],
      "min": [
        -1,
        -1,
        -1
      ],
      "type": "VEC3"
    },
    {
      "bufferView": 2,
      "componentType": 5126,
      "count": 1089,
      "max": [
        1.015625,
        1
      ],
      "min": [
        -0.015625,
        0
      ],
      "type": "VEC2"
    },
    {
      "bufferView": 3,
      "componentType": 5123,
      "count": 5952,
      "max": [
        1088
      ],
      "min": [
        0
      ],
      "type": "SCALAR"
    },
    {
      "bufferView": 4,
      "componentType": 5126,
      "count": 24,
      "max": [
        0.550000011920929,
        0.05999999865889549,
        0.12999999523162842
      ],
      "min": [
        -0.550000011920929,
        -0.05999999865889549,
        -0.12999999523162842
      ],
      "type": "VEC3"
    },
    {
      "bufferView": 5,
      "componentType": 5126,
      "count": 24,
      "max": [
        1,
        1,
        1
      ],
      "min": [
        -1,
        -1,
        -1
      ],
      "type": "VEC3"
    },
    {
      "bufferView": 6,
      "componentType": 5126,
      "count": 24,
      "max": [
        1,
        1
      ],
      "min": [
        0,
        0
      ],
      "type": "VEC2"
    },
    {
      "bufferView": 7,
      "componentType": 5123,
      "count": 36,
      "max": [
        23
      ],
      "min": [
        0
      ],
      "type": "SCALAR"
    },
    {
      "bufferView": 8,
      "componentType": 5126,
      "count": 735,
      "max": [
        0.7599999904632568,
        0.7599999904632568,
        0.05849567428231239
      ],
      "min": [
        -0.7599999904632568,
        -0.7599999904632568,
        -0.05849567428231239
      ],
      "type": "VEC3"
    },
    {
      "bufferView": 9,
      "componentType": 5126,
      "count": 735,
      "max": [
        1,
        1,
        0.9749279022216797
      ],
      "min": [
        -1,
        -1,
        -0.9749279022216797
      ],
      "type": "VEC3"
    },
    {
      "bufferView": 10,
      "componentType": 5126,
      "count": 735,
      "max": [
        1,
        1
      ],
      "min": [
        0,
        0
      ],
      "type": "VEC2"
    },
    {
      "bufferView": 11,
      "componentType": 5123,
      "count": 4032,
      "max": [
        734
      ],
      "min": [
        0
      ],
      "type": "SCALAR"
    },
    {
      "bufferView": 12,
      "componentType": 5126,
      "count": 361,
      "max": [
        0.3499999940395355,
        0.3499999940395355,
        0.3446827232837677
      ],
      "min": [
        -0.3499999940395355,
        -0.3499999940395355,
        -0.3446827232837677
      ],
      "type": "VEC3"
    },
    {
      "bufferView": 13,
      "componentType": 5126,
      "count": 361,
      "max": [
        1,
        1,
        0.9848077297210693
      ],
      "min": [
        -1,
        -1,
        -0.9848077297210693
      ],
      "type": "VEC3"
    },
    {
      "bufferView": 14,
      "componentType": 5126,
      "count": 361,
      "max": [
        1.0277777910232544,
        1
      ],
      "min": [
        -0.02777777798473835,
        0
      ],
      "type": "VEC2"
    },
    {
      "bufferView": 15,
      "componentType": 5123,
      "count": 1836,
      "max": [
        360
      ],
      "min": [
        0
      ],
      "type": "SCALAR"
    }
  ],
  "materials": [
    {
      "pbrMetallicRoughness": {
        "baseColorFactor": [
          0.014443843592229466,
          0.21586050010324415,
          0.6866853124288865,
          1
        ],
        "metallicFactor": 0,
        "roughnessFactor": 0.24
      },
      "extensions": {
        "KHR_materials_clearcoat": {
          "clearcoatFactor": 1,
          "clearcoatRoughnessFactor": 0.14
        }
      }
    },
    {
      "pbrMetallicRoughness": {
        "baseColorFactor": [
          0.0060488330203860696,
          0.014443843592229466,
          0.033104766565152086,
          1
        ],
        "metallicFactor": 0,
        "roughnessFactor": 0.6
      }
    },
    {
      "pbrMetallicRoughness": {
        "baseColorFactor": [
          0.6724431569510133,
          0.9046611743890203,
          1,
          1
        ],
        "metallicFactor": 0,
        "roughnessFactor": 0.4
      }
    },
    {
      "pbrMetallicRoughness": {
        "baseColorFactor": [
          0.47353149613845735,
          0.8796223968851662,
          1,
          0.8
        ],
        "metallicFactor": 0,
        "roughnessFactor": 0.08
      },
      "alphaMode": "BLEND",
      "extensions": {
        "KHR_materials_transmission": {
          "transmissionFactor": 0.3
        },
        "KHR_materials_volume": {
          "thicknessFactor": 0,
          "attenuationColor": [
            1,
            1,
            1
          ]
        }
      }
    }
  ],
  "meshes": [
    {
      "primitives": [
        {
          "mode": 4,
          "attributes": {
            "POSITION": 0,
            "NORMAL": 1,
            "TEXCOORD_0": 2
          },
          "indices": 3,
          "material": 0
        }
      ]
    },
    {
      "primitives": [
        {
          "mode": 4,
          "attributes": {
            "POSITION": 4,
            "NORMAL": 5,
            "TEXCOORD_0": 6
          },
          "indices": 7,
          "material": 1
        }
      ]
    },
    {
      "primitives": [
        {
          "mode": 4,
          "attributes": {
            "POSITION": 8,
            "NORMAL": 9,
            "TEXCOORD_0": 10
          },
          "indices": 11,
          "material": 2
        }
      ]
    },
    {
      "primitives": [
        {
          "mode": 4,
          "attributes": {
            "POSITION": 12,
            "NORMAL": 13,
            "TEXCOORD_0": 14
          },
          "indices": 15,
          "material": 3
        }
      ]
    }
  ],
  "extensionsUsed": [
    "KHR_materials_clearcoat",
    "KHR_materials_transmission",
    "KHR_materials_volume"
  ]
}