{
  "asset": {
    "version": "2.0",
    "generator": "THREE.GLTFExporter r176"
  },
  "scenes": [
    {
      "nodes": [
        3
      ]
    }
  ],
  "scene": 0,
  "nodes": [
    {
      "matrix": [
        1,
        0,
        0,
        0,
        0,
        0.86,
        0,
        0,
        0,
        0,
        1.08,
        0,
        0,
        0,
        0,
        1
      ],
      "mesh": 0
    },
    {
      "matrix": [
        1,
        0,
        0,
        0,
        0,
        2.220446049250313e-16,
        1,
        0,
        0,
        -1,
        2.220446049250313e-16,
        0,
        0,
        0,
        0,
        1
      ],
      "mesh": 1
    },
    {
      "matrix": [
        -1,
        1.2246467991473532e-16,
        0,
        0,
        -1.2246467991473532e-16,
        -1,
        0,
        0,
        0,
        0,
        1,
        0,
        0,
        0.88,
        0,
        1
      ],
      "mesh": 2
    },
    {
      "children": [
        0,
        1,
        2
      ]
    }
  ],
  "bufferViews": [
    {
      "buffer": 0,
      "byteOffset": 0,
      "byteLength": 1152,
      "target": 34962,
      "byteStride": 12
    },
    {
      "buffer": 0,
      "byteOffset": 1152,
      "byteLength": 1152,
      "target": 34962,
      "byteStride": 12
    },
    {
      "buffer": 0,
      "byteOffset": 2304,
      "byteLength": 768,
      "target": 34962,
      "byteStride": 8
    },
    {
      "buffer": 0,
      "byteOffset": 3072,
      "byteLength": 7644,
      "target": 34962,
      "byteStride": 12
    },
    {
      "buffer": 0,
      "byteOffset": 10716,
      "byteLength": 7644,
      "target": 34962,
      "byteStride": 12
    },
    {
      "buffer": 0,
      "byteOffset": 18360,
      "byteLength": 5096,
      "target": 34962,
      "byteStride": 8
    },
    {
      "buffer": 0,
      "byteOffset": 23456,
      "byteLength": 6912,
      "target": 34963
    },
    {
      "buffer": 0,
      "byteOffset": 30368,
      "byteLength": 228,
      "target": 34962,
      "byteStride": 12
    },
    {
      "buffer": 0,
      "byteOffset": 30596,
      "byteLength": 228,
      "target": 34962,
      "byteStride": 12
    },
    {
      "buffer": 0,
      "byteOffset": 30824,
      "byteLength": 152,
      "target": 34962,
      "byteStride": 8
    },
    {
      "buffer": 0,
      "byteOffset": 30976,
      "byteLength": 48,
      "target": 34963
    }
  ],
  "buffers": [
    {
      "byteLength": 31024,
      "uri": "data:application/octet-stream;base64,"
    }
  ],
  "accessors": [
    {
      "bufferView": 0,
      "componentType": 5126,
      "count": 96,
      "max": [
        1.0800000429153442,
        1.0800000429153442,
        1.0800000429153442
      ],
      "min": [
        -1.0800000429153442,
        -1.0800000429153442,
        -1.0800000429153442
      ],
      "type": "VEC3"
    },
    {
      "bufferView": 1,
      "componentType": 5126,
      "count": 96,
      "max": [
        1,
        1,
        1
      ],
      "min": [
        -1,
        -1,
        -1
      ],
      "type": "VEC3"
    },
    {
      "bufferView": 2,
      "componentType": 5126,
      "count": 96,
      "max": [
        1,
        1
      ],
      "min": [
        0,
        0
      ],
      "type": "VEC2"
    },
    {
      "bufferView": 3,
      "componentType": 5126,
      "count": 637,
      "max": [
        0.8299999833106995,
        0.8299999833106995,
        0.05000000074505806
      ],
      "min": [
        -0.8299999833106995,
        -0.8299999833106995,
        -0.05000000074505806
      ],
      "type": "VEC3"
    },
    {
      "bufferView": 4,
      "componentType": 5126,
      "count": 637,
      "max": [
        1,
        1,
        1
      ],
      "min": [
        -1,
        -1,
        -1
      ],
      "type": "VEC3"
    },
    {
      "bufferView": 5,
      "componentType": 5126,
      "count": 637,
      "max": [
        1,
        1
      ],
      "min": [
        0,
        0
      ],
      "type": "VEC2"
    },
    {
      "bufferView": 6,
      "componentType": 5123,
      "count": 3456,
      "max": [
        636
      ],
      "min": [
        0
      ],
      "type": "SCALAR"
    },
    {
      "bufferView": 7,
      "componentType": 5126,
      "count": 19,
      "max": [
        0.18000000715255737,
        0.3499999940395355,
        0.18000000715255737
      ],
      "min": [
        -0.18000000715255737,
        -0.3499999940395355,
        -0.18000000715255737
      ],
      "type": "VEC3"
    },
    {
      "bufferView": 8,
      "componentType": 5126,
      "count": 19,
      "max": [
        0.9684929251670837,
        0.24904103577136993,
        0.9684929251670837
      ],
      "min": [
        -0.9684929251670837,
        -1,
        -0.9684929251670837
      ],
      "type": "VEC3"
    },
    {
      "bufferView": 9,
      "componentType": 5126,
      "count": 19,
      "max": [
        1,
        1
      ],
      "min": [
        0,
        0
      ],
      "type": "VEC2"
    },
    {
      "bufferView": 10,
      "componentType": 5123,
      "count": 24,
      "max": [
        18
      ],
      "min": [
        1
      ],
      "type": "SCALAR"
    }
  ],
  "materials": [
    {
      "pbrMetallicRoughness": {
        "baseColorFactor": [
          0.024157632443547246,
          0.02955683443236377,
          0.04091519690055698,
          1
        ],
        "metallicFactor": 0.55,
        "roughnessFactor": 0.2
      },
      "extensions": {
        "KHR_materials_clearcoat": {
          "clearcoatFactor": 0.75,
          "clearcoatRoughnessFactor": 0
        }
      }
    },
    {
      "pbrMetallicRoughness": {
        "baseColorFactor": [
          0.19806931954941637,
          0.8796223968851662,
          1,
          1
        ],
        "metallicFactor": 0,
        "roughnessFactor": 0.2
      },
      "emissiveFactor": [
        0.06847816983662762,
        0.6724431569510133,
        1
      ],
      "extensions": {
        "KHR_materials_emissive_strength": {
          "emissiveStrength": 1.4
        }
      }
    },
    {
      "pbrMetallicRoughness": {
        "baseColorFactor": [
          0.19806931954941637,
          0.8796223968851662,
          1,
          1
        ],
        "metallicFactor": 0,
        "roughnessFactor": 0.22
      }
    }
  ],
  "meshes": [
    {
      "primitives": [
        {
          "mode": 4,
          "attributes": {
            "POSITION": 0,
            "NORMAL": 1,
            "TEXCOORD_0": 2
          },
          "material": 0
        }
      ]
    },
    {
      "primitives": [
        {
          "mode": 4,
          "attributes": {
            "POSITION": 3,
            "NORMAL": 4,
            "TEXCOORD_0": 5
          },
          "indices": 6,
          "material": 1
        }
      ]
    },
    {
      "primitives": [
        {
          "mode": 4,
          "attributes": {
            "POSITION": 7,
            "NORMAL": 8,
            "TEXCOORD_0": 9
          },
          "indices": 10,
          "material": 2
        }
      ]
    }
  ],
  "extensionsUsed": [
    "KHR_materials_clearcoat",
    "KHR_materials_emissive_strength"
  ]
}